<svg width="20" height="20" viewBox="0 0 20 20" fill="none" xmlns="http://www.w3.org/2000/svg">
<g clip-path="url(#clip0_274_239)">
<path d="M17.6337 3.40944C18.4291 1.93233 17.5201 0 17.5201 0C15.4749 0 13.997 1.36349 13.997 1.36349C13.2017 0.908993 10.5876 0.908993 10.5876 0.908993C10.5876 0.908993 7.97354 0.908993 7.17817 1.36349C7.17817 1.36349 5.70105 0 3.6551 0C3.6551 0 2.74611 1.93161 3.54148 3.40944C3.54148 3.40944 1.72349 5.1138 2.40524 8.75049C3.04625 12.1678 6.04193 13.0689 7.97354 13.0689C7.97354 13.0689 7.17817 13.7507 7.29179 14.8869C7.29179 14.8869 6.15555 15.5687 5.01931 15.1142C3.88307 14.6597 3.31495 13.5234 3.31495 13.5234C3.31495 13.5234 2.1787 12.0463 1.04246 12.6144C1.04246 12.6144 0.701589 12.9553 1.95145 13.5234C1.95145 13.5234 2.86045 14.8869 3.20132 15.6823C3.54219 16.4776 5.36018 17.1594 7.17888 16.7049V19.3183C7.17888 19.3183 7.17888 19.5455 6.72439 19.6591C6.26989 19.7728 6.26989 20 6.49714 20H14.6795C14.9068 20 14.9068 19.7728 14.4523 19.6591C13.9978 19.5455 13.9978 19.3183 13.9978 19.3183V16.7049C13.9978 16.7049 14.0078 15.3421 13.9978 14.8869C13.9728 13.745 13.2024 13.0689 13.2024 13.0689C15.134 13.0689 18.1297 12.1678 18.7707 8.75049C19.4524 5.1138 17.6345 3.40944 17.6345 3.40944H17.6337Z" fill="#6C5036"/>
</g>
<defs>
<clipPath id="clip0_274_239">
<rect width="20" height="20" fill="white"/>
</clipPath>
</defs>
</svg>
