<svg width="191" height="48" viewBox="0 0 191 48" fill="none" xmlns="http://www.w3.org/2000/svg">
<path d="M79.2637 27.6699C79.2637 28.3079 79.1042 29.0007 78.7852 29.748C78.4753 30.4863 77.9831 31.2155 77.3086 31.9355C76.6341 32.6465 75.7728 33.2253 74.7246 33.6719C73.6764 34.1185 72.4551 34.3418 71.0605 34.3418C70.0033 34.3418 69.0417 34.2415 68.1758 34.041C67.3099 33.8405 66.5215 33.5306 65.8105 33.1113C65.1087 32.6829 64.4616 32.1224 63.8691 31.4297C63.3405 30.8008 62.8893 30.099 62.5156 29.3242C62.1419 28.5404 61.8594 27.7064 61.668 26.8223C61.4857 25.9382 61.3945 24.9993 61.3945 24.0059C61.3945 22.3926 61.627 20.9479 62.0918 19.6719C62.5658 18.3958 63.2402 17.3066 64.1152 16.4043C64.9902 15.4928 66.0156 14.8001 67.1914 14.3262C68.3672 13.8522 69.6204 13.6152 70.9512 13.6152C72.5736 13.6152 74.0182 13.9388 75.2852 14.5859C76.5521 15.2331 77.5228 16.0352 78.1973 16.9922C78.8717 17.9401 79.209 18.8379 79.209 19.6855C79.209 20.1504 79.0449 20.5605 78.7168 20.916C78.3887 21.2715 77.9922 21.4492 77.5273 21.4492C77.0078 21.4492 76.6159 21.3262 76.3516 21.0801C76.0964 20.834 75.8092 20.4102 75.4902 19.8086C74.9616 18.8151 74.3372 18.0723 73.6172 17.5801C72.9062 17.0879 72.0267 16.8418 70.9785 16.8418C69.3105 16.8418 67.9798 17.4753 66.9863 18.7422C66.002 20.0091 65.5098 21.8092 65.5098 24.1426C65.5098 25.7012 65.7285 27 66.166 28.0391C66.6035 29.069 67.2233 29.8392 68.0254 30.3496C68.8275 30.86 69.7663 31.1152 70.8418 31.1152C72.0085 31.1152 72.9928 30.8281 73.7949 30.2539C74.6061 29.6706 75.2168 28.8184 75.627 27.6973C75.8001 27.1686 76.0143 26.7402 76.2695 26.4121C76.5247 26.0749 76.9349 25.9062 77.5 25.9062C77.9831 25.9062 78.3978 26.0749 78.7441 26.4121C79.0905 26.7493 79.2637 27.1686 79.2637 27.6699ZM92.0879 32.2363C91.1855 32.9382 90.3105 33.4668 89.4629 33.8223C88.6243 34.1686 87.681 34.3418 86.6328 34.3418C85.6758 34.3418 84.8327 34.1549 84.1035 33.7812C83.3835 33.3984 82.8275 32.8835 82.4355 32.2363C82.0436 31.5892 81.8477 30.8874 81.8477 30.1309C81.8477 29.11 82.1712 28.2396 82.8184 27.5195C83.4655 26.7995 84.3542 26.3164 85.4844 26.0703C85.7214 26.0156 86.3092 25.8926 87.248 25.7012C88.1868 25.5098 88.9889 25.3366 89.6543 25.1816C90.3288 25.0176 91.0579 24.8216 91.8418 24.5938C91.7962 23.6094 91.5957 22.8893 91.2402 22.4336C90.8939 21.9688 90.1693 21.7363 89.0664 21.7363C88.1185 21.7363 87.403 21.8685 86.9199 22.1328C86.446 22.3971 86.0358 22.7936 85.6895 23.3223C85.3522 23.8509 85.1107 24.2018 84.9648 24.375C84.8281 24.5391 84.5273 24.6211 84.0625 24.6211C83.6432 24.6211 83.2786 24.4889 82.9688 24.2246C82.668 23.9512 82.5176 23.6048 82.5176 23.1855C82.5176 22.5293 82.75 21.8913 83.2148 21.2715C83.6797 20.6517 84.4043 20.1413 85.3887 19.7402C86.373 19.3392 87.599 19.1387 89.0664 19.1387C90.707 19.1387 91.9967 19.3346 92.9355 19.7266C93.8743 20.1094 94.5352 20.7201 94.918 21.5586C95.3099 22.3971 95.5059 23.5091 95.5059 24.8945C95.5059 25.7695 95.5013 26.5124 95.4922 27.123C95.4922 27.7337 95.4876 28.4128 95.4785 29.1602C95.4785 29.862 95.5924 30.5957 95.8203 31.3613C96.0573 32.1178 96.1758 32.6055 96.1758 32.8242C96.1758 33.207 95.9935 33.5579 95.6289 33.877C95.2734 34.1868 94.8678 34.3418 94.4121 34.3418C94.0293 34.3418 93.651 34.1641 93.2773 33.8086C92.9036 33.444 92.5072 32.9199 92.0879 32.2363ZM91.8418 26.8359C91.2949 27.0365 90.4974 27.2507 89.4492 27.4785C88.4102 27.6973 87.6901 27.8613 87.2891 27.9707C86.888 28.071 86.5052 28.276 86.1406 28.5859C85.776 28.8867 85.5938 29.3105 85.5938 29.8574C85.5938 30.4225 85.8079 30.9056 86.2363 31.3066C86.6647 31.6986 87.2253 31.8945 87.918 31.8945C88.6562 31.8945 89.3353 31.735 89.9551 31.416C90.584 31.0879 91.0443 30.6686 91.3359 30.1582C91.6732 29.5931 91.8418 28.6634 91.8418 27.3691V26.8359ZM102.369 21.2578V21.709C103.071 20.8431 103.8 20.2096 104.557 19.8086C105.313 19.3984 106.17 19.1934 107.127 19.1934C108.275 19.1934 109.333 19.4896 110.299 20.082C111.265 20.6745 112.026 21.5404 112.582 22.6797C113.147 23.819 113.43 25.168 113.43 26.7266C113.43 27.875 113.266 28.9323 112.938 29.8984C112.618 30.8555 112.176 31.6621 111.611 32.3184C111.046 32.9655 110.376 33.4668 109.602 33.8223C108.836 34.1686 108.011 34.3418 107.127 34.3418C106.061 34.3418 105.163 34.1276 104.434 33.6992C103.714 33.2708 103.025 32.6419 102.369 31.8125V37.418C102.369 39.0586 101.772 39.8789 100.578 39.8789C99.8763 39.8789 99.4115 39.6647 99.1836 39.2363C98.9557 38.8171 98.8418 38.2018 98.8418 37.3906V21.2852C98.8418 20.5742 98.9967 20.0456 99.3066 19.6992C99.6165 19.3438 100.04 19.166 100.578 19.166C101.107 19.166 101.535 19.3483 101.863 19.7129C102.201 20.0684 102.369 20.5833 102.369 21.2578ZM109.684 26.6855C109.684 25.7012 109.533 24.8581 109.232 24.1562C108.932 23.4453 108.512 22.903 107.975 22.5293C107.446 22.1465 106.858 21.9551 106.211 21.9551C105.181 21.9551 104.311 22.3607 103.6 23.1719C102.898 23.9831 102.547 25.1771 102.547 26.7539C102.547 28.2396 102.898 29.3971 103.6 30.2266C104.301 31.0469 105.172 31.457 106.211 31.457C106.831 31.457 107.405 31.2793 107.934 30.9238C108.462 30.5592 108.886 30.0169 109.205 29.2969C109.524 28.5768 109.684 27.7064 109.684 26.6855ZM119.486 34.8066L119.828 33.9727L115.234 22.4062C114.952 21.7409 114.811 21.2578 114.811 20.957C114.811 20.638 114.893 20.3418 115.057 20.0684C115.221 19.7949 115.444 19.5762 115.727 19.4121C116.018 19.248 116.319 19.166 116.629 19.166C117.167 19.166 117.572 19.3392 117.846 19.6855C118.119 20.0228 118.361 20.5104 118.57 21.1484L121.729 30.3359L124.723 21.791C124.96 21.0983 125.174 20.556 125.365 20.1641C125.557 19.7721 125.757 19.5078 125.967 19.3711C126.186 19.2344 126.491 19.166 126.883 19.166C127.165 19.166 127.434 19.2435 127.689 19.3984C127.954 19.5443 128.154 19.7448 128.291 20C128.437 20.2552 128.51 20.5241 128.51 20.8066C128.473 20.9798 128.414 21.2259 128.332 21.5449C128.25 21.8639 128.15 22.1875 128.031 22.5156L123.164 35.2578C122.745 36.3789 122.335 37.2585 121.934 37.8965C121.533 38.5345 120.999 39.0221 120.334 39.3594C119.678 39.7057 118.789 39.8789 117.668 39.8789C116.574 39.8789 115.754 39.7604 115.207 39.5234C114.66 39.2865 114.387 38.8535 114.387 38.2246C114.387 37.7962 114.514 37.4635 114.77 37.2266C115.034 36.9987 115.421 36.8848 115.932 36.8848C116.132 36.8848 116.328 36.9121 116.52 36.9668C116.757 37.0215 116.962 37.0488 117.135 37.0488C117.563 37.0488 117.9 36.985 118.146 36.8574C118.393 36.7298 118.611 36.5065 118.803 36.1875C119.003 35.8776 119.231 35.4173 119.486 34.8066ZM134.662 15.748V21.4492C135.364 20.7201 136.079 20.1641 136.809 19.7812C137.538 19.3893 138.44 19.1934 139.516 19.1934C140.755 19.1934 141.84 19.4896 142.77 20.082C143.708 20.6654 144.433 21.5176 144.943 22.6387C145.463 23.7507 145.723 25.0723 145.723 26.6035C145.723 27.7337 145.577 28.7728 145.285 29.7207C145.003 30.6595 144.588 31.4753 144.041 32.168C143.494 32.8607 142.829 33.3984 142.045 33.7812C141.27 34.1549 140.413 34.3418 139.475 34.3418C138.9 34.3418 138.358 34.2734 137.848 34.1367C137.346 34 136.918 33.8223 136.562 33.6035C136.207 33.3757 135.902 33.1432 135.646 32.9062C135.4 32.6693 135.072 32.3138 134.662 31.8398V32.209C134.662 32.9108 134.493 33.444 134.156 33.8086C133.819 34.1641 133.391 34.3418 132.871 34.3418C132.342 34.3418 131.919 34.1641 131.6 33.8086C131.29 33.444 131.135 32.9108 131.135 32.209V15.9121C131.135 15.1556 131.285 14.5859 131.586 14.2031C131.896 13.8112 132.324 13.6152 132.871 13.6152C133.445 13.6152 133.887 13.8021 134.197 14.1758C134.507 14.5404 134.662 15.0645 134.662 15.748ZM134.84 26.8359C134.84 28.3216 135.177 29.4655 135.852 30.2676C136.535 31.0605 137.428 31.457 138.531 31.457C139.47 31.457 140.277 31.0514 140.951 30.2402C141.635 29.4199 141.977 28.2487 141.977 26.7266C141.977 25.7422 141.835 24.8945 141.553 24.1836C141.27 23.4727 140.869 22.9258 140.35 22.543C139.83 22.151 139.224 21.9551 138.531 21.9551C137.82 21.9551 137.187 22.151 136.631 22.543C136.075 22.9258 135.637 23.4863 135.318 24.2246C134.999 24.9538 134.84 25.8242 134.84 26.8359ZM158.15 32.2363C157.248 32.9382 156.373 33.4668 155.525 33.8223C154.687 34.1686 153.743 34.3418 152.695 34.3418C151.738 34.3418 150.895 34.1549 150.166 33.7812C149.446 33.3984 148.89 32.8835 148.498 32.2363C148.106 31.5892 147.91 30.8874 147.91 30.1309C147.91 29.11 148.234 28.2396 148.881 27.5195C149.528 26.7995 150.417 26.3164 151.547 26.0703C151.784 26.0156 152.372 25.8926 153.311 25.7012C154.249 25.5098 155.051 25.3366 155.717 25.1816C156.391 25.0176 157.12 24.8216 157.904 24.5938C157.859 23.6094 157.658 22.8893 157.303 22.4336C156.956 21.9688 156.232 21.7363 155.129 21.7363C154.181 21.7363 153.465 21.8685 152.982 22.1328C152.508 22.3971 152.098 22.7936 151.752 23.3223C151.415 23.8509 151.173 24.2018 151.027 24.375C150.891 24.5391 150.59 24.6211 150.125 24.6211C149.706 24.6211 149.341 24.4889 149.031 24.2246C148.73 23.9512 148.58 23.6048 148.58 23.1855C148.58 22.5293 148.812 21.8913 149.277 21.2715C149.742 20.6517 150.467 20.1413 151.451 19.7402C152.436 19.3392 153.661 19.1387 155.129 19.1387C156.77 19.1387 158.059 19.3346 158.998 19.7266C159.937 20.1094 160.598 20.7201 160.98 21.5586C161.372 22.3971 161.568 23.5091 161.568 24.8945C161.568 25.7695 161.564 26.5124 161.555 27.123C161.555 27.7337 161.55 28.4128 161.541 29.1602C161.541 29.862 161.655 30.5957 161.883 31.3613C162.12 32.1178 162.238 32.6055 162.238 32.8242C162.238 33.207 162.056 33.5579 161.691 33.877C161.336 34.1868 160.93 34.3418 160.475 34.3418C160.092 34.3418 159.714 34.1641 159.34 33.8086C158.966 33.444 158.57 32.9199 158.15 32.2363ZM157.904 26.8359C157.357 27.0365 156.56 27.2507 155.512 27.4785C154.473 27.6973 153.753 27.8613 153.352 27.9707C152.951 28.071 152.568 28.276 152.203 28.5859C151.839 28.8867 151.656 29.3105 151.656 29.8574C151.656 30.4225 151.87 30.9056 152.299 31.3066C152.727 31.6986 153.288 31.8945 153.98 31.8945C154.719 31.8945 155.398 31.735 156.018 31.416C156.646 31.0879 157.107 30.6686 157.398 30.1582C157.736 29.5931 157.904 28.6634 157.904 27.3691V26.8359ZM169.074 28.9551V32.0723C169.074 32.8288 168.896 33.3984 168.541 33.7812C168.186 34.1549 167.734 34.3418 167.188 34.3418C166.65 34.3418 166.208 34.1504 165.861 33.7676C165.515 33.3848 165.342 32.8197 165.342 32.0723V21.6816C165.342 20.0046 165.948 19.166 167.16 19.166C167.78 19.166 168.227 19.362 168.5 19.7539C168.773 20.1458 168.924 20.7246 168.951 21.4902C169.398 20.7246 169.854 20.1458 170.318 19.7539C170.792 19.362 171.421 19.166 172.205 19.166C172.989 19.166 173.75 19.362 174.488 19.7539C175.227 20.1458 175.596 20.6654 175.596 21.3125C175.596 21.7682 175.436 22.1465 175.117 22.4473C174.807 22.7389 174.47 22.8848 174.105 22.8848C173.969 22.8848 173.636 22.8027 173.107 22.6387C172.588 22.4655 172.128 22.3789 171.727 22.3789C171.18 22.3789 170.733 22.5247 170.387 22.8164C170.04 23.099 169.771 23.5228 169.58 24.0879C169.389 24.653 169.257 25.3275 169.184 26.1113C169.111 26.8861 169.074 27.834 169.074 28.9551ZM186.369 32.2363C185.467 32.9382 184.592 33.4668 183.744 33.8223C182.906 34.1686 181.962 34.3418 180.914 34.3418C179.957 34.3418 179.114 34.1549 178.385 33.7812C177.665 33.3984 177.109 32.8835 176.717 32.2363C176.325 31.5892 176.129 30.8874 176.129 30.1309C176.129 29.11 176.452 28.2396 177.1 27.5195C177.747 26.7995 178.635 26.3164 179.766 26.0703C180.003 26.0156 180.59 25.8926 181.529 25.7012C182.468 25.5098 183.27 25.3366 183.936 25.1816C184.61 25.0176 185.339 24.8216 186.123 24.5938C186.077 23.6094 185.877 22.8893 185.521 22.4336C185.175 21.9688 184.451 21.7363 183.348 21.7363C182.4 21.7363 181.684 21.8685 181.201 22.1328C180.727 22.3971 180.317 22.7936 179.971 23.3223C179.633 23.8509 179.392 24.2018 179.246 24.375C179.109 24.5391 178.809 24.6211 178.344 24.6211C177.924 24.6211 177.56 24.4889 177.25 24.2246C176.949 23.9512 176.799 23.6048 176.799 23.1855C176.799 22.5293 177.031 21.8913 177.496 21.2715C177.961 20.6517 178.686 20.1413 179.67 19.7402C180.654 19.3392 181.88 19.1387 183.348 19.1387C184.988 19.1387 186.278 19.3346 187.217 19.7266C188.156 20.1094 188.816 20.7201 189.199 21.5586C189.591 22.3971 189.787 23.5091 189.787 24.8945C189.787 25.7695 189.783 26.5124 189.773 27.123C189.773 27.7337 189.769 28.4128 189.76 29.1602C189.76 29.862 189.874 30.5957 190.102 31.3613C190.339 32.1178 190.457 32.6055 190.457 32.8242C190.457 33.207 190.275 33.5579 189.91 33.877C189.555 34.1868 189.149 34.3418 188.693 34.3418C188.311 34.3418 187.932 34.1641 187.559 33.8086C187.185 33.444 186.788 32.9199 186.369 32.2363ZM186.123 26.8359C185.576 27.0365 184.779 27.2507 183.73 27.4785C182.691 27.6973 181.971 27.8613 181.57 27.9707C181.169 28.071 180.786 28.276 180.422 28.5859C180.057 28.8867 179.875 29.3105 179.875 29.8574C179.875 30.4225 180.089 30.9056 180.518 31.3066C180.946 31.6986 181.507 31.8945 182.199 31.8945C182.938 31.8945 183.617 31.735 184.236 31.416C184.865 31.0879 185.326 30.6686 185.617 30.1582C185.954 29.5931 186.123 28.6634 186.123 27.3691V26.8359Z" fill="#6C5036"/>
<path d="M35.953 6.46432C36.084 6.76664 36.1445 7.07273 36.1404 7.34582C39.7565 7.4752 48.0002 8.60576 48.0002 13.1767C48.0002 15.1514 47.3926 16.5185 46.6331 17.278C45.8737 18.0375 43.5511 17.4277 42.076 17.8857C38.0402 19.1389 38.4304 24.78 36.1404 28.56C33.8503 32.34 32.747 33.917 33.114 38.3704C37.6709 38.0883 39.3418 40.2148 38.4304 42.4933H30.2279C27.3113 38.6957 27.038 33.2274 30.8355 29.7338C27.7975 31.5565 27.4937 34.8985 27.4937 37.4807C27.4937 40.0628 24.9114 42.4933 23.3924 42.4933C24.6076 37.1769 17.7056 37.5786 16.7745 37.9062C18.1168 37.1083 20.6757 30.6572 17.0654 26.7637C19.6556 29.8078 18.6245 36.6573 15.5424 38.3704C22.5523 37.3874 23.6475 40.6093 22.6619 42.4933H4.31535C-1.97444 26.7637 10.3502 20.9996 16.3364 19.8604C21.3541 18.9056 25.7606 16.4668 28.4764 12.1629C29.2203 10.9841 29.97 9.79608 30.6667 9.09236C30.525 8.99943 30.3877 8.89077 30.258 8.76669C29.3986 7.94445 29.3024 6.36011 29.9145 5.72026C30.5266 5.0804 31.6151 5.62732 32.4746 6.44956C32.7468 6.7099 32.9529 7.00665 33.088 7.31097C33.0966 7.312 33.1053 7.31304 33.114 7.31415C33.114 7.31415 33.566 7.30689 34.233 7.30978C34.2199 7.28234 34.2071 7.25445 34.1949 7.22612C33.8614 6.45631 33.9846 5.66181 34.4701 5.45147C34.9556 5.24112 35.6195 5.69459 35.953 6.46432Z" fill="#6C5036"/>
<path d="M38.4634 10.7236C38.2221 10.2474 37.3756 9.47125 35.9198 10.1758C37.0471 11.047 37.009 10.8346 38.4634 10.7236Z" fill="white"/>
<rect y="41.28" width="22.7848" height="1.2" rx="0.6" fill="#6C5036"/>
<rect x="30.9873" y="41.28" width="10.0253" height="1.2" rx="0.6" fill="#6C5036"/>
<rect x="41.9238" y="41.28" width="1.2" height="1.2" rx="0.6" fill="#6C5036"/>
</svg>
