<!-- <svg width="36" height="36" xmlns="http://www.w3.org/2000/svg"><path d="M6.788 0A6.788 6.788 0 0 0 0 6.788v22.305c0 3.75 3.04 6.789 6.788 6.789h22.305c3.75 0 6.789-3.04 6.789-6.789V6.788C35.882 3.04 32.842 0 29.093 0H6.788Zm6.868 11.1L9 24.888h1.773L15.43 11.1h-1.773Zm6.914 13.788L25.227 11.1H27l-4.656 13.788H20.57Zm-4.705-7.63h4.767l-.497 1.47H15.37l.496-1.47Z" fill="#0D0C0C" fill-rule="evenodd"/></svg> -->
<svg width="48" height="48" viewBox="0 0 48 48" fill="none" xmlns="http://www.w3.org/2000/svg">
<path d="M35.953 6.46435C36.084 6.76666 36.1445 7.07276 36.1404 7.34585C39.7565 7.47523 48.0002 8.60578 48.0002 13.1767C48.0002 15.1514 47.3926 16.5185 46.6331 17.278C45.8737 18.0375 43.5511 17.4277 42.076 17.8858C38.0402 19.1389 38.4304 24.78 36.1404 28.56C33.8503 32.34 32.747 33.917 33.114 38.3704C37.6709 38.0883 39.3418 40.2149 38.4304 42.4933H30.2279C27.3113 38.6957 27.038 33.2274 30.8355 29.7339C27.7975 31.5565 27.4937 34.8985 27.4937 37.4807C27.4937 40.0628 24.9114 42.4933 23.3924 42.4933C24.6076 37.1769 17.7056 37.5786 16.7745 37.9062C18.1168 37.1084 20.6757 30.6573 17.0654 26.7637C19.6556 29.8078 18.6245 36.6573 15.5424 38.3704C22.5523 37.3875 23.6475 40.6094 22.6619 42.4933H4.31535C-1.97444 26.7637 10.3502 20.9996 16.3364 19.8604C21.3541 18.9056 25.7606 16.4668 28.4764 12.1629C29.2203 10.9841 29.97 9.7961 30.6667 9.09239C30.525 8.99945 30.3877 8.89079 30.258 8.76671C29.3986 7.94447 29.3024 6.36014 29.9145 5.72028C30.5266 5.08042 31.6151 5.62734 32.4746 6.44959C32.7468 6.70992 32.9529 7.00667 33.088 7.31099C33.0966 7.31203 33.1053 7.31306 33.114 7.31418C33.114 7.31418 33.566 7.30691 34.233 7.3098C34.2199 7.28236 34.2071 7.25447 34.1949 7.22614C33.8614 6.45634 33.9846 5.66183 34.4701 5.45149C34.9556 5.24115 35.6195 5.69462 35.953 6.46435Z" fill="#ffffff"/>
<path d="M38.4634 10.7236C38.2221 10.2475 37.3756 9.4713 35.9198 10.1759C37.0471 11.0471 37.009 10.8346 38.4634 10.7236Z" fill="white"/>
<rect y="41.28" width="22.7848" height="1.2" rx="0.6" fill="#ffffff"/>
<rect x="30.9873" y="41.28" width="10.0253" height="1.2" rx="0.6" fill="#ffffff"/>
<rect x="41.9238" y="41.28" width="1.2" height="1.2" rx="0.6" fill="#ffffff"/>
</svg>
